<svg width="14" height="14" viewBox="0 0 14 14" fill="none" xmlns="http://www.w3.org/2000/svg">
<path d="M11.6565 5.50101V3.1575H10.1722V5.50101H7.82873V6.98524H10.1722V9.32875H11.6565V6.98524H14V5.50101H11.6565ZM5.60364 2.80144C5.95611 4.04085 5.42382 5.33697 4.57594 5.57585C4.4786 5.60319 4.37752 5.61725 4.27566 5.61725C3.4987 5.61725 2.72878 4.83124 2.44381 3.74869C2.28461 3.14047 2.29742 2.60881 2.48021 2.09761C2.65988 1.59469 2.98235 1.25504 3.38856 1.14083C3.48621 1.11318 3.5876 1.09912 3.68915 1.09912C4.62718 1.09912 5.23009 1.48799 5.60364 2.80144ZM6.54167 10.5938C6.61026 11.6926 5.67051 12.5031 4.25941 12.6059C2.82612 12.7106 1.64624 12.0653 1.57749 10.968C1.54422 10.4408 1.77622 9.92384 2.22993 9.51248C2.69035 9.09549 3.32232 8.83833 4.0099 8.78771C4.09099 8.78255 4.1716 8.77927 4.25175 8.77927C5.57834 8.77927 6.47668 9.55904 6.54167 10.5938ZM0.742736 3.55324C0.742736 4.72 1.13238 5.56241 1.90074 6.05736C2.52958 6.46248 3.26014 6.5231 3.63947 6.5231C3.73149 6.5231 3.80539 6.51966 3.85695 6.51622C3.85695 6.51622 3.73649 7.29989 4.31768 8.07559L4.29144 8.07544C3.28451 8.07544 0 8.28573 0 10.9858C0 13.7331 3.01657 13.8727 3.62166 13.8727C3.669 13.8727 3.69681 13.8717 3.69681 13.8717C3.70353 13.8719 3.7468 13.8736 3.82039 13.8736C4.20879 13.8736 5.21275 13.8247 6.145 13.3716C7.35425 12.7845 7.96793 11.7635 7.96793 10.3368C7.96793 8.958 7.03319 8.13746 6.35091 7.53768C5.93439 7.1724 5.57459 6.85681 5.57459 6.54997C5.57459 6.23734 5.83737 6.00237 6.16968 5.70474C6.70791 5.22338 7.21504 4.5383 7.21504 3.24327C7.21504 2.1048 7.0674 1.34066 6.15812 0.855863C6.25295 0.807274 6.58808 0.771809 6.754 0.748999C7.24676 0.681662 7.96793 0.605264 7.96793 0.202805V0.125H4.37533C4.3394 0.125937 0.742736 0.259205 0.742736 3.55324Z" fill="#666D89"/>
</svg>
