<svg width="14" height="14" viewBox="0 0 14 14" fill="none" xmlns="http://www.w3.org/2000/svg">
<path d="M0.0787113 4.27622H3.07192V13.9053H0.0787113V4.27622ZM3.17008 1.59817C3.17008 2.42495 2.55967 3.09462 1.55525 3.09462C0.610402 3.09462 0 2.42495 0 1.59817C0 0.75132 0.630157 0.101562 1.59476 0.101562C2.55967 0.101562 3.15063 0.75132 3.17008 1.59817Z" fill="#666D89"/>
<path d="M4.86295 7.3433C4.86295 6.14225 4.82375 5.13813 4.78455 4.27153H7.38342L7.52171 5.61056H7.58066C7.97438 4.98025 8.93929 4.05469 10.5541 4.05469C12.5231 4.05469 14 5.37427 14 8.20959V13.9006H11.0068V8.56425C11.0068 7.32354 10.5736 6.47716 9.49043 6.47716C8.66349 6.47716 8.17162 7.04805 7.95493 7.59934C7.87591 7.79612 7.85615 8.07208 7.85615 8.34772V13.9006H4.86295V7.3433Z" fill="#666D89"/>
</svg>
