<svg width="13" height="14" viewBox="0 0 13 14" fill="none" xmlns="http://www.w3.org/2000/svg">
<g clip-path="url(#clip0)">
<path d="M12.7204 5.5239C12.3198 5.73291 7.39975 8.30575 7.15448 8.43359C6.90907 8.56171 6.73718 8.57832 6.5 8.57832C6.26268 8.57832 6.09093 8.56171 5.84538 8.43359C5.60011 8.30575 0.680335 5.73291 0.279501 5.5239C-0.00245409 5.37685 7.19048e-07 5.54932 7.19048e-07 5.6825V10.9806C7.19048e-07 11.2833 0.40329 11.6732 0.716301 11.6732H12.2837C12.5967 11.6732 13 11.2833 13 10.9806V5.6825C13 5.54932 13.0026 5.37685 12.7204 5.5239ZM0.428857 4.07945C0.781445 4.26897 5.66367 6.8915 5.84538 6.98914C6.02723 7.08679 6.26268 7.13388 6.5 7.13388C6.73718 7.13388 6.97262 7.08679 7.15448 6.98914C7.33619 6.8915 12.2183 4.26897 12.571 4.07945C12.9237 3.89009 13.2577 3.29541 12.6094 3.29541H0.39029C-0.257399 3.29541 0.0761232 3.89009 0.428857 4.07945Z" fill="#F0E0E1"/>
</g>
<defs>
<clipPath id="clip0">
<rect y="0.984863" width="13" height="12.9989" fill="white"/>
</clipPath>
</defs>
</svg>
