<svg width="14" height="12" viewBox="0 0 14 12" fill="none" xmlns="http://www.w3.org/2000/svg">
<path d="M14 1.65924C13.4846 1.88781 12.9313 2.04211 12.3501 2.11165C12.9435 1.75617 13.3988 1.19313 13.6133 0.5225C13.0582 0.8515 12.4434 1.09072 11.7894 1.21946C11.2653 0.661131 10.5187 0.3125 9.69272 0.3125C8.10646 0.3125 6.82044 1.59852 6.82044 3.18463C6.82044 3.40985 6.8457 3.62898 6.89485 3.83913C4.50785 3.71952 2.39081 2.57594 0.974522 0.838109C0.727239 1.26252 0.585565 1.75587 0.585565 2.28224C0.585565 3.27868 1.09261 4.15763 1.86322 4.67289C1.3927 4.65798 0.949566 4.52894 0.562283 4.31376C0.561979 4.32563 0.561979 4.33765 0.561979 4.34983C0.561979 5.74146 1.55233 6.9024 2.86604 7.16611C2.62531 7.23185 2.37148 7.26716 2.10928 7.26716C1.92439 7.26716 1.74467 7.24905 1.56907 7.21557C1.93459 8.35657 2.9957 9.18714 4.2522 9.21011C3.269 9.98072 2.03091 10.4398 0.685087 10.4398C0.453326 10.4398 0.224761 10.4261 0 10.3994C1.27096 11.2146 2.78037 11.6902 4.403 11.6902C9.68587 11.6902 12.5752 7.31327 12.5752 3.51759C12.5752 3.39342 12.5725 3.26939 12.5668 3.14598C13.1281 2.7412 13.6149 2.23537 14 1.65924Z" fill="#666D89"/>
</svg>
